<?xml version="1.0" encoding="UTF-8"?><svg id="Layer_1" xmlns="http://www.w3.org/2000/svg" viewBox="0 0 449.83 153.92"><defs><style>.cls-1{font-size:17.06px;}.cls-1,.cls-2{font-family:TimesNewRomanPS-BoldMT, 'Times New Roman';}.cls-1,.cls-3{fill:#231f20;}.cls-4{fill:#654138;}.cls-5{fill:#9d443c;}.cls-6,.cls-7{fill:#dec1b8;}.cls-8{fill:#c69285;}.cls-9{fill:#b16a5d;}.cls-10{fill:#8b1822;}.cls-11{fill:#4b3c39;}.cls-12{fill:#79372f;}.cls-2{fill:#fff;font-size:11.37px;}.cls-13{letter-spacing:-.02em;}.cls-14{letter-spacing:-.04em;}.cls-15{letter-spacing:-.04em;}.cls-16{letter-spacing:-.02em;}.cls-7,.cls-17{stroke:#594a42;}.cls-7,.cls-17,.cls-18{stroke-miterlimit:10;}.cls-3{font-family:TimesNewRomanPSMT, 'Times New Roman';font-size:14.71px;}.cls-17,.cls-18{fill:none;}.cls-18{stroke:#231f20;stroke-width:.5px;}</style></defs><path class="cls-18" d="M85.25,79.69H17.09c-3.55,0-6.64,4.26-7.31,10.22,0,.09-.02,.18-.03,.27-.41,3.82-.34,7.41-.26,9.34"/><path class="cls-18" d="M347.3,78.5h65.37c3.4,0,6.37,4.26,7.01,10.22,0,.09,.02,.18,.03,.27,.39,3.82,.32,7.41,.25,9.34"/><text class="cls-1" transform="translate(97.56 79.69)"><tspan x="0" y="0">Age G</tspan><tspan class="cls-13" x="45.97" y="0">r</tspan><tspan x="53.23" y="0">oup of Individual</tspan><tspan class="cls-16" x="179.38" y="0"> </tspan><tspan class="cls-15" x="183.34" y="0">V</tspan><tspan x="195.03" y="0">ictims</tspan></text><g><g><rect class="cls-6" x="8.34" y="109.54" width="3.91" height="44.3"/><line class="cls-7" x1="8.34" y1="109.54" x2="12.26" y2="109.54"/></g><rect class="cls-8" x="15.44" y="109.54" width="35.29" height="44.38"/><rect class="cls-9" x="53.92" y="109.54" width="62.75" height="44.38"/><rect class="cls-5" x="119.85" y="109.54" width="117.65" height="44.38"/><rect class="cls-10" x="240.68" y="109.54" width="82.35" height="44.38"/><rect class="cls-12" x="326.22" y="109.54" width="62.75" height="44.38"/><rect class="cls-4" x="392.15" y="109.54" width="23.53" height="44.38"/><rect class="cls-11" x="418.86" y="109.54" width="3.92" height="44.38"/><line class="cls-17" x1="15.44" y1="109.54" x2="50.74" y2="109.54"/><line class="cls-17" x1="53.92" y1="109.54" x2="116.66" y2="109.54"/><line class="cls-17" x1="119.85" y1="109.54" x2="237.49" y2="109.54"/><line class="cls-17" x1="240.68" y1="109.54" x2="323.03" y2="109.54"/><line class="cls-17" x1="326.22" y1="109.54" x2="388.97" y2="109.54"/><line class="cls-17" x1="392.15" y1="109.54" x2="415.68" y2="109.54"/><line class="cls-17" x1="418.86" y1="109.54" x2="422.78" y2="109.54"/></g><text class="cls-2" transform="translate(6.92 132.48)"><tspan x="0" y="0">1%</tspan></text><text class="cls-2" transform="translate(23.65 132.48)"><tspan x="0" y="0">9%</tspan></text><text class="cls-2" transform="translate(73.92 132.48)"><tspan x="0" y="0">16%</tspan></text><text class="cls-2" transform="translate(167.3 132.48)"><tspan x="0" y="0">30%</tspan></text><text class="cls-2" transform="translate(270.48 132.48)"><tspan x="0" y="0">21%</tspan></text><text class="cls-2" transform="translate(349.55 132.48)"><tspan x="0" y="0">16%</tspan></text><text class="cls-2" transform="translate(395.88 132.48)"><tspan x="0" y="0">6%</tspan></text><text class="cls-2" transform="translate(419.07 132.48)"><tspan x="0" y="0">1%</tspan></text><rect class="cls-6" x="15.92" y="3.38" width="10.21" height="10.21"/><text class="cls-3" transform="translate(34.9 13.05)"><tspan x="0" y="0">0-</tspan><tspan class="cls-14" x="12.26" y="0">1</tspan><tspan x="19.07" y="0">1 </tspan></text><rect class="cls-8" x="15.92" y="30.68" width="10.21" height="10.21"/><text class="cls-3" transform="translate(35.6 40.35)"><tspan x="0" y="0">12-17 </tspan></text><rect class="cls-9" x="120.47" y="3.38" width="10.21" height="10.21"/><text class="cls-3" transform="translate(139.46 13.05)"><tspan x="0" y="0">18-25</tspan></text><rect class="cls-5" x="120.47" y="30.68" width="10.21" height="10.21"/><text class="cls-3" transform="translate(140.15 40.35)"><tspan x="0" y="0">26-35 </tspan></text><rect class="cls-10" x="228.47" y="2.55" width="10.21" height="10.21"/><text class="cls-3" transform="translate(247.45 12.23)"><tspan x="0" y="0">36-45 </tspan></text><rect class="cls-12" x="228.47" y="29.85" width="10.21" height="10.21"/><text class="cls-3" transform="translate(248.15 39.53)"><tspan x="0" y="0">46-60 </tspan></text><rect class="cls-4" x="323.9" y="2.83" width="10.21" height="10.21"/><text class="cls-3" transform="translate(342.89 12.5)"><tspan x="0" y="0">61-75 </tspan></text><rect class="cls-11" x="323.9" y="30.13" width="10.21" height="10.21"/><text class="cls-3" transform="translate(343.58 39.81)"><tspan x="0" y="0">76 &amp; older </tspan></text></svg>