<?xml version="1.0" encoding="UTF-8"?><svg id="Layer_1" xmlns="http://www.w3.org/2000/svg" viewBox="0 0 336.14 131.21"><defs><style>.cls-1{letter-spacing:-.02em;}.cls-2{fill:#fff;font-size:10.17px;}.cls-2,.cls-3{font-family:TimesNewRomanPS-BoldMT, 'Times New Roman';}.cls-4{fill:#9d443c;}.cls-5{fill:#c69285;}.cls-6{fill:#b16a5d;}.cls-7{fill:#571217;}.cls-8{letter-spacing:0em;}.cls-9{font-family:TimesNewRomanPSMT, 'Times New Roman';font-size:12px;}.cls-9,.cls-3{fill:#231f20;}.cls-10{letter-spacing:-.04em;}.cls-11{fill:#d86670;}.cls-11,.cls-12{stroke:#594a42;}.cls-11,.cls-12,.cls-13{stroke-miterlimit:10;}.cls-12,.cls-13{fill:none;}.cls-3{font-size:15.26px;}.cls-13{stroke:#231f20;stroke-width:.5px;}</style></defs><rect class="cls-6" x="9.22" y="21.6" width="8.32" height="8.32"/><text class="cls-9" transform="translate(25.44 29.62)"><tspan x="0" y="0">Gender nonbinary </tspan></text><rect class="cls-5" x="182.06" y="21.91" width="8.32" height="8.32"/><text class="cls-9" transform="translate(198.09 29.94)"><tspan x="0" y="0">Prefer not to specify</tspan></text><rect class="cls-7" x="9.22" y="2.08" width="8.32" height="8.32"/><text class="cls-9" transform="translate(24.71 9.97)"><tspan x="0" y="0">Female</tspan></text><rect class="cls-4" x="182.06" y="2.4" width="8.32" height="8.32"/><text class="cls-9" transform="translate(198.11 10.29)"><tspan x="0" y="0">Male</tspan></text><rect class="cls-7" x=".26" y="91.58" width="200.01" height="39.5"/><rect class="cls-4" x="203.49" y="91.66" width="100.01" height="39.5"/><rect class="cls-6" x="306.7" y="91.7" width="9.68" height="39.5"/><rect class="cls-5" x="319.59" y="91.7" width="12.9" height="39.5"/><g><path class="cls-13" d="M68.08,65.62H7.1c-3.17,0-5.94,3.81-6.54,9.15,0,.08-.02,.16-.03,.24-.37,3.42-.3,6.63-.23,8.36"/><text class="cls-3" transform="translate(71.96 68.16)"><tspan x="0" y="0">Gende</tspan><tspan class="cls-1" x="42.39" y="0">r</tspan><tspan x="48.89" y="0" xml:space="preserve"> of Individual</tspan><tspan class="cls-1" x="137.1" y="0"> </tspan><tspan class="cls-10" x="140.64" y="0">V</tspan><tspan class="cls-8" x="151.1" y="0">ictims</tspan></text><path class="cls-13" d="M267.45,65.62h58.48c3.04,0,5.69,3.81,6.27,9.14,0,.08,.02,.16,.03,.24,.35,3.42,.29,6.63,.22,8.36"/></g><line class="cls-11" x1=".27" y1="91.52" x2="200.29" y2="91.52"/><line class="cls-12" x1="203.49" y1="91.52" x2="303.49" y2="91.52"/><line class="cls-12" x1="306.69" y1="91.52" x2="316.39" y2="91.52"/><line class="cls-12" x1="319.58" y1="91.52" x2="332.51" y2="91.52"/><text class="cls-2" transform="translate(90.1 113.32)"><tspan x="0" y="0">62%</tspan></text><text class="cls-2" transform="translate(243.32 113.32)"><tspan x="0" y="0">31%</tspan></text><text class="cls-2" transform="translate(304.92 112.76)"><tspan x="0" y="0">3%</tspan></text><text class="cls-2" transform="translate(320.23 112.74)"><tspan x="0" y="0">4%</tspan></text></svg>