<?xml version="1.0" encoding="UTF-8"?><svg id="Layer_1" xmlns="http://www.w3.org/2000/svg" viewBox="0 0 358.1 210.6"><defs><style>.cls-1{letter-spacing:-.08em;}.cls-2{font-family:TimesNewRomanPSMT, 'Times New Roman';}.cls-2,.cls-3{fill:#231f20;font-size:9.5px;}.cls-4{fill:#8b1822;}.cls-5{fill:none;stroke:#8b1822;stroke-dasharray:0 0 2 2;stroke-miterlimit:10;stroke-width:.5px;}.cls-3{font-family:Times-Bold, Times;}</style></defs><g><text class="cls-2" transform="translate(5.26 206.37)"><tspan x="0" y="0">Government building </tspan></text><text class="cls-2" transform="translate(25.32 188.33)"><tspan x="0" y="0">Place of worship</tspan></text><text class="cls-2" transform="translate(27.17 170.28)"><tspan x="0" y="0">Hospital (clinic)</tspan></text><text class="cls-2" transform="translate(48.26 152.24)"><tspan class="cls-1" x="0" y="0">W</tspan><tspan x="8.21" y="0">orkplace</tspan></text><text class="cls-2" transform="translate(10.55 134.2)"><tspan x="0" y="0">University (college) </tspan></text><text class="cls-2" transform="translate(34.55 116.15)"><tspan x="0" y="0">School (K-12)</tspan></text><text class="cls-2" transform="translate(43.26 98.11)"><tspan x="0" y="0">Public park </tspan></text><text class="cls-2" transform="translate(36.39 80.07)"><tspan x="0" y="0">Public transit </tspan></text><text class="cls-2" transform="translate(63.31 62.02)"><tspan x="0" y="0">Online</tspan></text><text class="cls-2" transform="translate(21.64 43.98)"><tspan x="0" y="0">Private residence </tspan></text><text class="cls-2" transform="translate(53.01 25.94)"><tspan x="0" y="0">Business </tspan></text><text class="cls-2" transform="translate(0 7.89)"><tspan x="0" y="0">Public street and space </tspan></text></g><g><rect class="cls-4" x="172.23" y="4.02" width="185.87" height="5.74"/><rect class="cls-4" x="172.23" y="21.95" width="154.31" height="5.74"/><rect class="cls-4" x="172.23" y="39.88" width="59.09" height="5.74"/><rect class="cls-4" x="172.23" y="57.81" width="57.94" height="5.74"/><rect class="cls-4" x="172.23" y="75.74" width="48.19" height="5.74"/><rect class="cls-4" x="172.23" y="93.67" width="45.89" height="5.74"/><rect class="cls-4" x="172.23" y="111.6" width="34.42" height="5.74"/><rect class="cls-4" x="172.23" y="129.54" width="16.64" height="5.74"/><rect class="cls-4" x="172.23" y="147.47" width="6.31" height="5.74"/><rect class="cls-4" x="172.23" y="165.4" width="5.74" height="5.74"/><rect class="cls-4" x="172.23" y="183.33" width="5.16" height="5.74"/><rect class="cls-4" x="172.23" y="201.26" width="4.59" height="5.74"/></g><g><g><line class="cls-5" x1="95.64" y1="5.31" x2="114.62" y2="5.31"/><polygon class="cls-4" points="96.64 6.16 95.79 5.31 96.64 4.46 95.92 4.46 95.07 5.31 95.92 6.16 96.64 6.16"/></g><g><line class="cls-5" x1="146.44" y1="5.31" x2="165.42" y2="5.31"/><polygon class="cls-4" points="164.43 6.16 165.28 5.31 164.43 4.46 165.15 4.46 165.99 5.31 165.15 6.16 164.43 6.16"/></g></g><g><g><line class="cls-5" x1="95.64" y1="23.45" x2="114.62" y2="23.45"/><polygon class="cls-4" points="96.64 24.3 95.79 23.45 96.64 22.6 95.92 22.6 95.07 23.45 95.92 24.3 96.64 24.3"/></g><g><line class="cls-5" x1="146.44" y1="23.45" x2="165.42" y2="23.45"/><polygon class="cls-4" points="164.43 24.3 165.28 23.45 164.43 22.6 165.15 22.6 165.99 23.45 165.15 24.3 164.43 24.3"/></g></g><g><g><line class="cls-5" x1="95.64" y1="41.59" x2="114.62" y2="41.59"/><polygon class="cls-4" points="96.64 42.44 95.79 41.59 96.64 40.74 95.92 40.74 95.07 41.59 95.92 42.44 96.64 42.44"/></g><g><line class="cls-5" x1="146.44" y1="41.59" x2="165.42" y2="41.59"/><polygon class="cls-4" points="164.43 42.44 165.28 41.59 164.43 40.74 165.15 40.74 165.99 41.59 165.15 42.44 164.43 42.44"/></g></g><g><g><line class="cls-5" x1="95.64" y1="59.73" x2="114.62" y2="59.73"/><polygon class="cls-4" points="96.64 60.58 95.79 59.73 96.64 58.88 95.92 58.88 95.07 59.73 95.92 60.58 96.64 60.58"/></g><g><line class="cls-5" x1="146.44" y1="59.73" x2="165.42" y2="59.73"/><polygon class="cls-4" points="164.43 60.58 165.28 59.73 164.43 58.88 165.15 58.88 165.99 59.73 165.15 60.58 164.43 60.58"/></g></g><g><g><line class="cls-5" x1="95.64" y1="77.87" x2="114.62" y2="77.87"/><polygon class="cls-4" points="96.64 78.72 95.79 77.87 96.64 77.02 95.92 77.02 95.07 77.87 95.92 78.72 96.64 78.72"/></g><g><line class="cls-5" x1="146.44" y1="77.87" x2="165.42" y2="77.87"/><polygon class="cls-4" points="164.43 78.72 165.28 77.87 164.43 77.02 165.15 77.02 165.99 77.87 165.15 78.72 164.43 78.72"/></g></g><g><g><line class="cls-5" x1="95.64" y1="96.01" x2="114.62" y2="96.01"/><polygon class="cls-4" points="96.64 96.86 95.79 96.01 96.64 95.16 95.92 95.16 95.07 96.01 95.92 96.86 96.64 96.86"/></g><g><line class="cls-5" x1="146.44" y1="96.01" x2="165.42" y2="96.01"/><polygon class="cls-4" points="164.43 96.86 165.28 96.01 164.43 95.16 165.15 95.16 165.99 96.01 165.15 96.86 164.43 96.86"/></g></g><g><g><line class="cls-5" x1="95.64" y1="114.15" x2="114.62" y2="114.15"/><polygon class="cls-4" points="96.64 115 95.79 114.15 96.64 113.3 95.92 113.3 95.07 114.15 95.92 115 96.64 115"/></g><g><line class="cls-5" x1="146.44" y1="114.15" x2="165.42" y2="114.15"/><polygon class="cls-4" points="164.43 115 165.28 114.15 164.43 113.3 165.15 113.3 165.99 114.15 165.15 115 164.43 115"/></g></g><g><text class="cls-3" transform="translate(117.1 45.38)"><tspan x="0" y="0">10.3% </tspan></text><text class="cls-3" transform="translate(117.99 26.77)"><tspan x="0" y="0">26.9%</tspan></text><text class="cls-3" transform="translate(117.99 63.24)"><tspan x="0" y="0">10.1%</tspan></text><text class="cls-3" transform="translate(120.13 80.71)"><tspan x="0" y="0">8.4%</tspan></text><text class="cls-3" transform="translate(120.13 98.69)"><tspan x="0" y="0">8.0%</tspan></text><text class="cls-3" transform="translate(120.13 116.67)"><tspan x="0" y="0">6.0%</tspan></text><text class="cls-3" transform="translate(120.13 134.86)"><tspan x="0" y="0">2.9%</tspan></text><text class="cls-3" transform="translate(120.13 152.63)"><tspan x="0" y="0">1.1%</tspan></text><text class="cls-3" transform="translate(120.13 170.9)"><tspan x="0" y="0">1.0%</tspan></text><text class="cls-3" transform="translate(120.13 188.9)"><tspan x="0" y="0">0.9%</tspan></text><text class="cls-3" transform="translate(120.13 206.73)"><tspan x="0" y="0">0.8%</tspan></text><text class="cls-3" transform="translate(117.99 8.18)"><tspan x="0" y="0">32.4%</tspan></text></g><g><g><line class="cls-5" x1="95.64" y1="132.29" x2="114.62" y2="132.29"/><polygon class="cls-4" points="96.64 133.14 95.79 132.29 96.64 131.44 95.92 131.44 95.07 132.29 95.92 133.14 96.64 133.14"/></g><g><line class="cls-5" x1="146.44" y1="132.29" x2="165.42" y2="132.29"/><polygon class="cls-4" points="164.43 133.14 165.28 132.29 164.43 131.44 165.15 131.44 165.99 132.29 165.15 133.14 164.43 133.14"/></g></g><g><g><line class="cls-5" x1="95.64" y1="150.43" x2="114.62" y2="150.43"/><polygon class="cls-4" points="96.64 151.28 95.79 150.43 96.64 149.58 95.92 149.58 95.07 150.43 95.92 151.28 96.64 151.28"/></g><g><line class="cls-5" x1="146.44" y1="150.43" x2="165.42" y2="150.43"/><polygon class="cls-4" points="164.43 151.28 165.28 150.43 164.43 149.58 165.15 149.58 165.99 150.43 165.15 151.28 164.43 151.28"/></g></g><g><g><line class="cls-5" x1="95.64" y1="168.57" x2="114.62" y2="168.57"/><polygon class="cls-4" points="96.64 169.42 95.79 168.57 96.64 167.72 95.92 167.72 95.07 168.57 95.92 169.42 96.64 169.42"/></g><g><line class="cls-5" x1="146.44" y1="168.57" x2="165.42" y2="168.57"/><polygon class="cls-4" points="164.43 169.42 165.28 168.57 164.43 167.72 165.15 167.72 165.99 168.57 165.15 169.42 164.43 169.42"/></g></g><g><g><line class="cls-5" x1="95.64" y1="186.71" x2="114.62" y2="186.71"/><polygon class="cls-4" points="96.64 187.56 95.79 186.71 96.64 185.86 95.92 185.86 95.07 186.71 95.92 187.56 96.64 187.56"/></g><g><line class="cls-5" x1="146.44" y1="186.71" x2="165.42" y2="186.71"/><polygon class="cls-4" points="164.43 187.56 165.28 186.71 164.43 185.86 165.15 185.86 165.99 186.71 165.15 187.56 164.43 187.56"/></g></g><g><g><line class="cls-5" x1="95.64" y1="204.85" x2="114.62" y2="204.85"/><polygon class="cls-4" points="96.64 205.7 95.79 204.85 96.64 204 95.92 204 95.07 204.85 95.92 205.7 96.64 205.7"/></g><g><line class="cls-5" x1="146.44" y1="204.85" x2="165.42" y2="204.85"/><polygon class="cls-4" points="164.43 205.7 165.28 204.85 164.43 204 165.15 204 165.99 204.85 165.15 205.7 164.43 205.7"/></g></g><g><g><line class="cls-5" x1="95.64" y1="168.57" x2="114.62" y2="168.57"/><polygon class="cls-4" points="96.64 169.42 95.79 168.57 96.64 167.72 95.92 167.72 95.07 168.57 95.92 169.42 96.64 169.42"/></g><g><line class="cls-5" x1="146.44" y1="168.57" x2="165.42" y2="168.57"/><polygon class="cls-4" points="164.43 169.42 165.28 168.57 164.43 167.72 165.15 167.72 165.99 168.57 165.15 169.42 164.43 169.42"/></g></g></svg>