<?xml version="1.0" encoding="UTF-8"?><svg id="Layer_1" xmlns="http://www.w3.org/2000/svg" viewBox="0 0 346.86 304.21"><defs><style>.cls-1{fill:#8b1822;stroke-width:99.78px;}.cls-1,.cls-2,.cls-3,.cls-4,.cls-5,.cls-6,.cls-7,.cls-8{stroke:#8b1822;stroke-miterlimit:10;}.cls-2{stroke-width:15.7px;}.cls-2,.cls-3,.cls-4,.cls-5,.cls-6,.cls-7,.cls-8{fill:none;}.cls-3{stroke-width:4.36px;}.cls-4{stroke-width:4.91px;}.cls-5{stroke-width:57.36px;}.cls-6{stroke-width:7.85px;}.cls-7{stroke-width:2.94px;}.cls-9{fill:#231f20;font-size:9.5px;}.cls-8{stroke-width:4.14px;}.cls-10{font-family:TimesNewRomanPSMT, 'Times New Roman';}.cls-11{font-family:TimesNewRomanPS-BoldMT, 'Times New Roman';}</style></defs><path class="cls-1" d="M346.71,94.58h0c-31.83,0-62.28-7.2-84.82-19.9-16.32-9.2-38.49-18.16-67.05-22.09-9.49-1.31-19.82-1.82-19.82-1.82-11.17-.74-20.62-.89-27.48-.88"/><path class="cls-5" d="M346.71,176.25l-5.2,.03c-8.62,.23-43.78-1.05-59.08-2.96-13.74-1.72-21.67-4.04-24.88-4.93-10.55-2.9-18.41-6.29-20.15-7.01-13.88-5.75-35.78-11.53-38.62-12.28-11.76-3.1-28.96-6.45-51.27-6.75"/><path class="cls-2" d="M346.71,216.95h-67.05c-8.48-.23-21.77-1.13-37.57-4.73-20.75-4.72-29.23-10.3-48.74-15.29-10.29-2.63-26.5-5.88-45.73-5.88"/><path class="cls-6" d="M346.71,230.64c-36.01-.13-63.55-.08-82.52,0-7.06,.03-8.51,.04-11.39-.07-30.34-1.22-44.01-9.81-70.87-14.77-7.97-1.47-20.07-3.1-34.5-3.1"/><line class="cls-4" x1="346.71" y1="238.29" x2="147.74" y2="238.29"/><path class="cls-3" d="M346.71,244.24h-50.61c-8.5,.02-22.12,.47-38.65,3.01-27.83,4.28-39.2,10.69-64.9,14.15-9.85,1.33-26.11,1.61-44.81,1.41"/><path class="cls-8" d="M346.71,250.61h-32.84c-5.77,0-11.52,.48-17.17,1.44-7.74,1.31-17.22,3.25-27.76,6.14-18.95,5.21-30.42,10.54-38.46,13.62-15.78,6.04-43.87,10.08-82.74,9.5"/><path class="cls-7" d="M346.71,255.69h-19.93c-5.58-.05-13.81,.21-23.46,1.81-13.01,2.17-22.76,5.81-40.09,13.19-20.78,8.85-28.68,12.93-35.4,15.77-14.97,6.33-42.91,11.24-80.33,10.95"/><text class="cls-9" transform="translate(93.68 51.22)"><tspan class="cls-11" x="0" y="0">91.5% </tspan><tspan class="cls-10" x="28.5" y="0">Race </tspan></text><text class="cls-9" transform="translate(75.5 143.93)"><tspan class="cls-11" x="0" y="0">52.6%</tspan><tspan class="cls-10" x="26.12" y="0" xml:space="preserve"> Ethnicity</tspan></text><text class="cls-9" transform="translate(17.34 191.7)"><tspan class="cls-11" x="0" y="0">14.4%</tspan><tspan class="cls-10" x="26.12" y="0" xml:space="preserve"> Gender / gender identity </tspan></text><text class="cls-9" transform="translate(77.23 213.35)"><tspan class="cls-11" x="0" y="0">7.2%</tspan><tspan class="cls-10" x="21.38" y="0" xml:space="preserve"> Language</tspan></text><text class="cls-9" transform="translate(30.53 238.93)"><tspan class="cls-11" x="0" y="0">4.5% </tspan><tspan class="cls-10" x="23.75" y="0">Face mask or clothing </tspan></text><text class="cls-9" transform="translate(102.28 263.96)"><tspan class="cls-11" x="0" y="0">4% </tspan><tspan class="cls-10" x="16.62" y="0">Food </tspan></text><text class="cls-9" transform="translate(45.3 282.02)"><tspan class="cls-11" x="0" y="0">3.8%</tspan><tspan class="cls-10" x="21.38" y="0" xml:space="preserve"> Sexual orientation </tspan></text><text class="cls-9" transform="translate(81.96 298.91)"><tspan class="cls-11" x="0" y="0">2.7% </tspan><tspan class="cls-10" x="23.75" y="0">Religion </tspan></text></svg>