<?xml version="1.0" encoding="UTF-8"?><svg id="Layer_1" xmlns="http://www.w3.org/2000/svg" viewBox="0 0 389.88 290.68"><defs><style>.cls-1{letter-spacing:-.06em;}.cls-1,.cls-2,.cls-3,.cls-4,.cls-5,.cls-6{font-family:TimesNewRomanPSMT, 'Times New Roman';}.cls-2{letter-spacing:-.02em;}.cls-3{letter-spacing:-.07em;}.cls-7{stroke-width:9.38px;}.cls-7,.cls-8,.cls-9,.cls-10,.cls-11,.cls-12,.cls-13,.cls-14{fill:none;stroke:#8b1822;stroke-miterlimit:10;}.cls-8{stroke-width:4.58px;}.cls-4{letter-spacing:0em;}.cls-9{stroke-width:8.94px;}.cls-10{stroke-width:72.95px;}.cls-15{fill:#231f20;font-size:9.5px;}.cls-11{stroke-width:1.2px;}.cls-12{stroke-width:6.43px;}.cls-13{stroke-width:17.67px;}.cls-5{letter-spacing:-.06em;}.cls-14{stroke-width:4.8px;}.cls-16{font-family:TimesNewRomanPS-BoldMT, 'Times New Roman';}</style></defs><path class="cls-10" d="M.06,90.38h0c28.29,0,55.35-8.68,75.39-24,14.5-11.09,34.21-21.9,59.6-26.65,8.43-1.58,17.62-2.19,17.62-2.19,9.93-.89,18.33-1.08,24.42-1.06"/><text class="cls-15" transform="translate(188.57 43.64)"><tspan class="cls-16" x="0" y="0">66.9% </tspan><tspan class="cls-6" x="28.5" y="0">Harassment</tspan></text><path class="cls-13" d="M.06,139.39l4.62,.03c7.66,.28,38.91-1.28,52.5-3.61,12.21-2.09,19.26-4.93,22.11-6.01,16.23-6.13,26.38-14.06,30.78-17.13,11.4-7.95,31.13-14.65,67.01-14.64"/><text class="cls-15" transform="translate(188.57 100.37)"><tspan class="cls-16" x="0" y="0">16.2%</tspan><tspan class="cls-6" x="26.12" y="0" xml:space="preserve"> Physical assault </tspan></text><path class="cls-13" d="M.06,161.68H59.68c7.54-.2,19.36-1.01,33.41-4.2,18.45-4.2,25.99-9.16,43.34-13.6,9.15-2.34,23.56-5.23,40.66-5.23"/><text class="cls-15" transform="translate(188.73 139.95)"><tspan class="cls-16" x="0" y="0">16.1%</tspan><tspan class="cls-1" x="26.12" y="0"> </tspan><tspan class="cls-3" x="27.98" y="0">A</tspan><tspan class="cls-6" x="34.13" y="0">voidance or shunning </tspan></text><path class="cls-7" d="M.06,180.8c31.99-.08,56.46-.05,73.31,0,6.27,.02,7.56,.03,10.11-.04,26.96-.7,39.09-5.61,62.96-8.46,7.08-.84,17.83-1.77,30.65-1.77"/><text class="cls-15" transform="translate(188.45 171.84)"><tspan class="cls-16" x="0" y="0">8.6%</tspan><tspan class="cls-6" x="21.38" y="0" xml:space="preserve"> Online </tspan></text><line class="cls-9" x1=".06" y1="193.1" x2="176.99" y2="193.1"/><path class="cls-12" d="M.06,203.52H45.07c7.55,.02,19.67,.42,34.37,2.68,24.75,3.8,34.86,9.5,57.71,12.59,8.76,1.18,23.22,1.43,39.84,1.25"/><text class="cls-15" transform="translate(188.29 193.89)"><tspan class="cls-16" x="0" y="0">8.2% </tspan><tspan class="cls-6" x="23.75" y="0">Coughed at or spat upon </tspan></text><text class="cls-15" transform="translate(188.29 221.39)"><tspan class="cls-16" x="0" y="0">5.9% </tspan><tspan class="cls-6" x="23.75" y="0">Job discrimination / hostile work environment </tspan></text><path class="cls-14" d="M.06,211.37H29.27c5.13,0,10.25,.54,15.26,1.62,6.88,1.48,15.32,3.67,24.68,6.94,16.85,5.88,27.05,11.9,34.2,15.38,14.03,6.82,39.01,11.38,73.57,10.73"/><text class="cls-15" transform="translate(188.8 247.4)"><tspan class="cls-16" x="0" y="0">4.4%</tspan><tspan class="cls-6" x="21.38" y="0" xml:space="preserve"> Gra</tspan><tspan class="cls-2" x="37.99" y="0">f</tspan><tspan class="cls-4" x="40.98" y="0">fiti, vandalism, robber</tspan><tspan class="cls-5" x="125.41" y="0">y</tspan><tspan class="cls-6" x="129.54" y="0">, or </tspan></text><path class="cls-8" d="M.06,217.7H17.79c4.96-.06,12.28,.25,20.86,2.14,11.57,2.55,20.23,6.85,35.65,15.55,18.48,10.43,25.5,15.23,31.48,18.58,13.31,7.46,38.15,13.25,71.43,12.91"/><text class="cls-15" transform="translate(188.8 268.2)"><tspan class="cls-16" x="0" y="0">4.2% </tspan><tspan class="cls-6" x="23.75" y="0">Denial of service </tspan></text><path class="cls-11" d="M.06,222.04H17.89c3.49,.38,8.59,1.18,14.49,3.08,14.68,4.72,24.04,12.94,28.06,16.37,19.33,16.47,41.04,29.33,47.94,33.03,12.94,6.95,37.93,11.32,68.93,10.36"/><text class="cls-15" transform="translate(188.8 286.69)"><tspan class="cls-16" x="0" y="0">1.1% </tspan><tspan class="cls-6" x="23.75" y="0">Barred from transportation </tspan></text></svg>