<?xml version="1.0" encoding="UTF-8"?><svg id="Layer_1" xmlns="http://www.w3.org/2000/svg" viewBox="0 0 306.15 126.81"><defs><style>.cls-1{letter-spacing:-.09em;}.cls-2,.cls-3,.cls-4,.cls-5,.cls-6,.cls-7,.cls-8{fill:none;stroke:#8b1822;stroke-miterlimit:10;}.cls-2,.cls-4,.cls-6,.cls-7{stroke-width:1.5px;}.cls-9{letter-spacing:-.02em;}.cls-10{letter-spacing:-.02em;}.cls-11,.cls-12,.cls-13,.cls-14,.cls-15,.cls-16,.cls-17{fill:#8b1822;}.cls-12{font-size:14.68px;}.cls-12,.cls-13,.cls-14,.cls-15,.cls-16,.cls-17{font-family:TimesNewRomanPS-BoldItalicMT, 'Times New Roman';}.cls-18{fill:#231f20;font-family:TimesNewRomanPS-BoldMT, 'Times New Roman';font-size:10px;}.cls-13{font-size:35.02px;}.cls-19{letter-spacing:-.06em;}.cls-20{letter-spacing:-.11em;}.cls-14{font-size:14.12px;}.cls-15{font-size:13.56px;}.cls-4{stroke-dasharray:0 0 2.04 2.04;}.cls-5{stroke-dasharray:0 0 2.04 2.04;}.cls-21{letter-spacing:-.04em;}.cls-16{font-size:20.9px;}.cls-6{stroke-dasharray:0 0 2 2;}.cls-7{stroke-dasharray:0 0 2.02 2.02;}.cls-17{font-size:11.86px;}.cls-8{stroke-dasharray:0 0 1.95 1.95;}</style></defs><g id="word_cloud_2.0"><text class="cls-13" transform="translate(47.4 74.97)"><tspan x="0" y="0">42.8% Chinese</tspan></text><text class="cls-16" transform="translate(0 18.93)"><tspan x="0" y="0">16.1% Korean</tspan></text><text class="cls-14" transform="translate(28.61 37.28)"><tspan x="0" y="0">8.2% Japanese</tspan></text><text class="cls-17" transform="translate(135.34 99.03)"><tspan x="0" y="0">6.2% </tspan><tspan class="cls-1" x="27.67" y="0">T</tspan><tspan x="33.83" y="0">aiwanese (China)</tspan></text><text class="cls-12" transform="translate(220.3 115.56)"><tspan x="0" y="0">8.9% Pilipinx</tspan></text><text class="cls-15" transform="translate(136.05 37.15)"><tspan x="0" y="0">8% </tspan><tspan class="cls-19" x="21.46" y="0">V</tspan><tspan x="29.75" y="0">ietnamese</tspan></text><g><polyline class="cls-2" points="266.38 81.17 266.38 82.17 265.38 82.17"/><line class="cls-7" x1="263.36" y1="82.17" x2="147.31" y2="82.17"/><polyline class="cls-2" points="146.3 82.17 145.3 82.17 145.3 81.17"/><line class="cls-6" x1="145.3" y1="79.17" x2="145.3" y2="48.18"/><polyline class="cls-2" points="145.3 47.18 145.3 46.18 146.3 46.18"/><line class="cls-7" x1="148.32" y1="46.18" x2="264.37" y2="46.18"/><polyline class="cls-2" points="265.38 46.18 266.38 46.18 266.38 47.18"/><line class="cls-6" x1="266.38" y1="49.18" x2="266.38" y2="80.17"/></g><g><polyline class="cls-2" points="139.07 81.17 139.07 82.17 138.07 82.17"/><line class="cls-4" x1="136.03" y1="82.17" x2="47.45" y2="82.17"/><polyline class="cls-2" points="46.43 82.17 45.43 82.17 45.43 81.17"/><line class="cls-6" x1="45.43" y1="79.17" x2="45.43" y2="48.18"/><polyline class="cls-2" points="45.43 47.18 45.43 46.18 46.43 46.18"/><line class="cls-4" x1="48.47" y1="46.18" x2="137.05" y2="46.18"/><polyline class="cls-2" points="138.07 46.18 139.07 46.18 139.07 47.18"/><line class="cls-6" x1="139.07" y1="49.18" x2="139.07" y2="80.17"/></g><g><path class="cls-3" d="M23.95,91.67c.01-.34,.03-.67,.05-1"/><path class="cls-5" d="M24.12,88.64c1.27-17.95,6.7-29.12,19.74-30.15"/><path class="cls-3" d="M44.88,58.43c.33-.01,.66-.02,1-.02"/><path class="cls-11" d="M27.78,91.67c-.1,2.07-1.87,3.67-3.94,3.57-2.07-.1-3.67-1.87-3.57-3.94,.1-2.07,1.87-3.67,3.94-3.57,2.07,.1,3.67,1.87,3.57,3.94Z"/></g><g><path class="cls-3" d="M288.62,31.53c0,.34-.02,.67-.03,1"/><path class="cls-8" d="M288.52,34.48c-1.17,22.49-10.09,31.07-20.89,31.97"/><path class="cls-3" d="M266.66,66.52c-.33,.01-.66,.02-1,.02"/><path class="cls-11" d="M284.83,31.67c.02-2.08,1.73-3.74,3.8-3.71s3.74,1.73,3.71,3.8c-.02,2.08-1.73,3.74-3.8,3.71s-3.74-1.73-3.71-3.8Z"/></g><text class="cls-18" transform="translate(3.53 110.29)"><tspan class="cls-9" x="0" y="0">Pe</tspan><tspan class="cls-21" x="10.15" y="0">r</tspan><tspan class="cls-10" x="14.2" y="0">centage of 10,905 </tspan><tspan class="cls-9"><tspan x="0" y="11.7">Reported Cases </tspan></tspan></text><text class="cls-18" transform="translate(266.86 8.31)"><tspan class="cls-20" x="0" y="0">T</tspan><tspan class="cls-10" x="5.55" y="0">argeted </tspan><tspan class="cls-9"><tspan x="-21.31" y="11.7">Asian Descent</tspan></tspan></text></g></svg>